<?xml version="1.0" encoding="utf-8"?>
<!-- Generator: Adobe Illustrator 16.0.0, SVG Export Plug-In . SVG Version: 6.00 Build 0)  -->
<!DOCTYPE svg PUBLIC "-//W3C//DTD SVG 1.1//EN" "http://www.w3.org/Graphics/SVG/1.1/DTD/svg11.dtd">
<svg version="1.1" id="Layer_1" xmlns="http://www.w3.org/2000/svg" xmlns:xlink="http://www.w3.org/1999/xlink" x="0px" y="0px"
	 width="207.5px" height="90.375px" viewBox="0 0 207.5 90.375" enable-background="new 0 0 207.5 90.375" xml:space="preserve">
<text transform="matrix(1 0 0 1 10.0723 70.4805)" fill="#FFFFFF" font-family="'Montserrat-Bold'" font-size="74.1094" letter-spacing="-3">VYK</text>
<circle fill="none" stroke="#010202" stroke-miterlimit="10" cx="282.773" cy="86.833" r="20.396"/>
<circle fill="none" stroke="#010202" stroke-miterlimit="10" cx="282.773" cy="86.833" r="11.642"/>
<path fill="none" stroke="#010202" stroke-miterlimit="10" d="M294.415,85.809c0,0,2.607,10.99-11.642,21.42"/>
<path fill="none" stroke="#010202" stroke-miterlimit="10" d="M271.132,86.833c0,0-1.641-17.397,22.276-17.406"/>
<g>
	<path fill="#FFFFFF" d="M183.739,55.568c-2.938,2.849-6.94,4.607-11.346,4.607c-8.997,0-16.316-7.319-16.316-16.315
		c0-1.848,0.313-3.623,0.881-5.279l-0.008,0.01c3.029-14.886,19.016-17.54,25.673-17.995c-3.132-1.382-6.592-2.152-10.229-2.152
		c-14.015,0-25.417,11.401-25.417,25.417c0,13.955,11.305,25.317,25.238,25.414C179.169,63.807,182.329,58.73,183.739,55.568z"/>
	<path fill="#FFFFFF" d="M184.957,21.771c-14.615,0.198-20.694,6.042-23.042,9.593c2.837-2.383,6.493-3.822,10.479-3.822
		c8.997,0,16.316,7.319,16.316,16.316c0,0.679-0.046,1.347-0.127,2.005c-1.18,11.333-9.871,20.377-12.875,23.195
		c12.455-1.629,22.103-12.309,22.103-25.2C197.809,34.411,192.627,26.151,184.957,21.771z"/>
</g>
<text transform="matrix(1 0 0 1 230.6309 12.3481)" fill="#E52D16" font-family="'Montserrat-Bold'" font-size="28.6343" letter-spacing="-1">VYK</text>
<g>
	<path fill="#E52D16" d="M297.732,6.587c-1.135,1.101-2.681,1.78-4.384,1.78c-3.476,0-6.304-2.828-6.304-6.304
		c0-0.714,0.121-1.4,0.34-2.04l-0.003,0.004c1.17-5.751,7.347-6.777,9.919-6.953c-1.21-0.534-2.547-0.832-3.953-0.832
		c-5.415,0-9.82,4.405-9.82,9.82c0,5.392,4.368,9.782,9.751,9.819C295.967,9.771,297.188,7.809,297.732,6.587z"/>
	<path fill="#E52D16" d="M298.203-6.471c-5.647,0.076-7.996,2.334-8.903,3.707c1.096-0.921,2.509-1.477,4.049-1.477
		c3.476,0,6.304,2.828,6.304,6.304c0,0.262-0.018,0.521-0.049,0.775c-0.456,4.378-3.813,7.874-4.975,8.962
		c4.812-0.629,8.54-4.756,8.54-9.737C303.169-1.587,301.167-4.778,298.203-6.471z"/>
</g>
</svg>
