<?xml version="1.0" encoding="utf-8"?>
<!-- Generator: Adobe Illustrator 16.0.0, SVG Export Plug-In . SVG Version: 6.00 Build 0)  -->
<!DOCTYPE svg PUBLIC "-//W3C//DTD SVG 1.1//EN" "http://www.w3.org/Graphics/SVG/1.1/DTD/svg11.dtd">
<svg version="1.1" id="Layer_1" xmlns="http://www.w3.org/2000/svg" xmlns:xlink="http://www.w3.org/1999/xlink" x="0px" y="0px"
	 width="207.5px" height="90.375px" viewBox="0 0 207.5 90.375" enable-background="new 0 0 207.5 90.375" xml:space="preserve">
<circle fill="none" stroke="#010202" stroke-miterlimit="10" cx="282.773" cy="86.833" r="20.396"/>
<circle fill="none" stroke="#010202" stroke-miterlimit="10" cx="282.773" cy="86.833" r="11.642"/>
<path fill="none" stroke="#010202" stroke-miterlimit="10" d="M294.415,85.809c0,0,2.606,10.99-11.642,21.42"/>
<path fill="none" stroke="#010202" stroke-miterlimit="10" d="M271.132,86.833c0,0-1.641-17.397,22.276-17.405"/>
<g>
	<path fill="#FFFFFF" d="M182.34,59.448c-3.23,3.132-7.63,5.062-12.474,5.062c-9.892,0-17.938-8.046-17.938-17.937
		c0-2.031,0.346-3.983,0.969-5.804l-0.008,0.011c3.328-16.365,20.905-19.283,28.225-19.783c-3.443-1.52-7.247-2.366-11.245-2.366
		c-15.41,0-27.944,12.535-27.944,27.943c0,15.344,12.43,27.835,27.746,27.942C177.316,68.506,180.79,62.925,182.34,59.448z"/>
	<path fill="#FFFFFF" d="M183.68,22.292c-16.068,0.218-22.75,6.643-25.332,10.546c3.118-2.62,7.139-4.202,11.521-4.202
		c9.891,0,17.937,8.046,17.937,17.938c0,0.746-0.051,1.48-0.14,2.205c-1.3,12.457-10.853,22.402-14.155,25.501
		c13.693-1.791,24.301-13.534,24.301-27.707C197.809,36.188,192.111,27.107,183.68,22.292z"/>
</g>
<text transform="matrix(1 0 0 1 230.6309 12.3486)" fill="#E52D16" font-family="'Montserrat-Bold'" font-size="28.6343">VYK</text>
<g>
	<path fill="#E52D16" d="M297.732,6.587c-1.135,1.101-2.684,1.78-4.385,1.78c-3.478,0-6.306-2.828-6.306-6.304
		c0-0.714,0.121-1.4,0.34-2.04l-0.003,0.004c1.17-5.751,7.35-6.777,9.919-6.953c-1.21-0.534-2.547-0.832-3.95-0.832
		c-5.416,0-9.82,4.405-9.82,9.82c0,5.392,4.367,9.782,9.75,9.819C295.967,9.771,297.188,7.809,297.732,6.587z"/>
	<path fill="#E52D16" d="M298.203-6.471c-5.646,0.076-7.996,2.334-8.903,3.707c1.097-0.921,2.509-1.477,4.05-1.477
		c3.478,0,6.303,2.828,6.303,6.304c0,0.262-0.018,0.521-0.049,0.775c-0.455,4.378-3.812,7.874-4.975,8.962
		c4.812-0.629,8.54-4.756,8.54-9.737C303.169-1.587,301.167-4.778,298.203-6.471z"/>
</g>
<g enable-background="new    ">
	<path fill="#FFFFFF" d="M35.026,53.991l14.502-36.257h13.77L40.404,74.687H29.649L6.754,17.734h13.77L35.026,53.991z"/>
</g>
<g enable-background="new    ">
	<path fill="#FFFFFF" d="M81.406,74.687h-12.71V52.199L48.979,17.734h13.769l12.303,21.185l12.303-21.185h13.77L81.406,52.199
		V74.687z"/>
</g>
<g enable-background="new    ">
	<path fill="#FFFFFF" d="M121.516,63.442c6.245,0,11.352-2.471,15.316-7.414l8.148,8.393c-6.465,7.279-14.083,10.917-22.854,10.917
		c-8.773,0-15.998-2.77-21.673-8.311c-5.677-5.54-8.514-12.533-8.514-20.979c0-8.445,2.893-15.493,8.677-21.144
		c5.785-5.648,12.86-8.473,21.225-8.473c9.341,0,17.162,3.558,23.465,10.673l-7.904,8.963c-4.02-4.997-9.017-7.496-14.99-7.496
		c-4.781,0-8.869,1.562-12.263,4.685c-3.396,3.124-5.093,7.333-5.093,12.629s1.602,9.547,4.808,12.751
		C113.068,61.842,116.953,63.442,121.516,63.442z"/>
</g>
</svg>
