<?xml version="1.0" encoding="utf-8"?>
<!-- Generator: Adobe Illustrator 16.0.0, SVG Export Plug-In . SVG Version: 6.00 Build 0)  -->
<!DOCTYPE svg PUBLIC "-//W3C//DTD SVG 1.1//EN" "http://www.w3.org/Graphics/SVG/1.1/DTD/svg11.dtd">
<svg version="1.1" id="Layer_1" xmlns="http://www.w3.org/2000/svg" xmlns:xlink="http://www.w3.org/1999/xlink" x="0px" y="0px"
	 width="207.5px" height="90.375px" viewBox="0 0 207.5 90.375" enable-background="new 0 0 207.5 90.375" xml:space="preserve">
<text transform="matrix(1 0 0 1 10.729 61.4805)" fill="#010202" font-family="'Montserrat-Regular'" font-size="87.897">v</text>
<text transform="matrix(1 0 0 1 48.6836 61.4805)" fill="#010202" font-family="'Montserrat-Regular'" font-size="87.897">y</text>
<text transform="matrix(1 0 0 1 90.3115 61.4805)" fill="#010202" font-family="'Montserrat-Regular'" font-size="87.897">c</text>
<text transform="matrix(1 0 0 1 129.2871 61.4805)" fill="#010202" font-family="'Montserrat-Regular'" font-size="87.897">o</text>
<g>
	<path fill="#010202" d="M170.57,43.646c-0.687,0-1.375-0.028-2.063-0.086c-14.958-1.248-23.687-15.932-24.051-16.556
		c-1.704-2.921-0.717-6.669,2.203-8.373c2.918-1.698,6.653-0.72,8.361,2.184c0.135,0.224,6.023,9.874,14.558,10.549
		c5.815,0.455,12.157-3.362,18.825-11.365c2.166-2.598,6.026-2.945,8.623-0.784c2.597,2.165,2.948,6.024,0.784,8.622
		C189.059,38.337,179.906,43.646,170.57,43.646z"/>
</g>
</svg>
