<?xml version="1.0" encoding="utf-8"?>
<!-- Generator: Adobe Illustrator 16.0.0, SVG Export Plug-In . SVG Version: 6.00 Build 0)  -->
<!DOCTYPE svg PUBLIC "-//W3C//DTD SVG 1.1//EN" "http://www.w3.org/Graphics/SVG/1.1/DTD/svg11.dtd">
<svg version="1.1" id="Layer_1" xmlns="http://www.w3.org/2000/svg" xmlns:xlink="http://www.w3.org/1999/xlink" x="0px" y="0px"
	 width="207.5px" height="90.375px" viewBox="0 0 207.5 90.375" enable-background="new 0 0 207.5 90.375" xml:space="preserve">
<text transform="matrix(1 0 0 1 10.729 61.4805)" fill="#010202" font-family="'Montserrat-Regular'" font-size="87.897">v</text>
<text transform="matrix(1 0 0 1 48.6836 61.4805)" fill="#010202" font-family="'Montserrat-Regular'" font-size="87.897">y</text>
<text transform="matrix(1 0 0 1 90.3115 61.4805)" fill="#010202" font-family="'Montserrat-Regular'" font-size="87.897">c</text>
<text transform="matrix(1 0 0 1 129.2871 61.4805)" fill="#010202" font-family="'Montserrat-Regular'" font-size="87.897">o</text>
<g>
	<path fill="#010202" d="M170.57,43.646c-0.687,0-1.375-0.028-2.063-0.086c-14.958-1.248-23.687-15.932-24.051-16.556
		c-1.704-2.921-0.717-6.669,2.203-8.373c2.918-1.698,6.653-0.72,8.361,2.184c0.135,0.224,6.023,9.874,14.558,10.549
		c5.815,0.455,12.157-3.362,18.825-11.365c2.166-2.598,6.026-2.945,8.623-0.784c2.597,2.165,2.948,6.024,0.784,8.622
		C189.059,38.337,179.906,43.646,170.57,43.646z"/>
</g>
<path fill="#010202" d="M365.325-40.202c-14.929,0-27.074,12.146-27.074,27.074s12.146,27.074,27.074,27.074
	s27.074-12.146,27.074-27.074S380.254-40.202,365.325-40.202z M338.954-13.128c0-14.542,11.83-26.372,26.372-26.372
	c4.574,0,8.88,1.172,12.634,3.229c-10.4,0.217-18.123,3.019-22.963,8.339c-5.895,6.479-5.3,14.522-5.275,14.822
	c0.011,8.596,7.006,15.585,15.604,15.585c6.985,0,12.912-4.613,14.896-10.953c-0.132,0.869-0.327,1.812-0.607,2.819
	c-2.405,8.626-9.138,15.028-14.403,18.899C350.722,13.18,338.954,1.375,338.954-13.128z M350.424-13.128
	c0-8.217,6.685-14.901,14.901-14.901s14.901,6.685,14.901,14.901s-6.685,14.902-14.901,14.902S350.424-4.911,350.424-13.128z
	 M366.415,13.219c9.067-6.91,12.553-13.942,13.876-18.688c1.487-5.334,0.665-8.933,0.629-9.083l-0.057,0.014
	c-0.715-7.946-7.409-14.195-15.538-14.195c-6.146,0-11.471,3.572-14.013,8.748c0.718-2.364,1.982-5.031,4.204-7.473
	c4.883-5.368,12.832-8.1,23.624-8.124c7.528,4.648,12.556,12.975,12.556,22.454C391.696,1.048,380.453,12.646,366.415,13.219z"/>
<circle fill="none" stroke="#010202" stroke-width="0.25" stroke-miterlimit="10" cx="372.38" cy="93.543" r="38.396"/>
<circle fill="none" stroke="#010202" stroke-width="0.25" stroke-miterlimit="10" cx="372.38" cy="93.543" r="21.916"/>
<path fill="none" stroke="#010202" stroke-width="0.25" stroke-miterlimit="10" d="M394.295,91.614c0,0,4.909,20.688-21.916,40.324"
	/>
<path fill="none" stroke="#010202" stroke-width="0.25" stroke-miterlimit="10" d="M350.464,93.543c0,0-3.09-32.751,41.935-32.768"
	/>
<g id="qzb2sE.tif">
	
		<image overflow="visible" width="500" height="247" id="Layer_0_1_" xlink:href="613E866C05DCE361.png"  transform="matrix(1 0 0 1 -13.6665 93.5435)">
	</image>
</g>
</svg>
