<?xml version="1.0" encoding="utf-8"?>
<!-- Generator: Adobe Illustrator 16.0.0, SVG Export Plug-In . SVG Version: 6.00 Build 0)  -->
<!DOCTYPE svg PUBLIC "-//W3C//DTD SVG 1.1//EN" "http://www.w3.org/Graphics/SVG/1.1/DTD/svg11.dtd">
<svg version="1.1" id="Layer_1" xmlns:sketch="http://www.bohemiancoding.com/sketch/ns"
	 xmlns="http://www.w3.org/2000/svg" xmlns:xlink="http://www.w3.org/1999/xlink" x="0px" y="0px" width="43px" height="43px"
	 viewBox="-12.5 -12.5 43 43" enable-background="new -12.5 -12.5 43 43" xml:space="preserve">
<title></title>
<desc></desc>
<g id="Page-1">
	<g id="Icons-AV" transform="translate(-168.000000, -85.000000)">
		<g id="play-circle-outline" transform="translate(168.000000, 85.000000)">
			<path id="Shape" fill="#FF5A51" d="M5.3,17.325L16.399,9L5.3,0.675V17.325L5.3,17.325z M9-9.5C-1.175-9.5-9.5-1.175-9.5,9
				c0,10.175,8.325,18.5,18.5,18.5c10.175,0,18.5-8.325,18.5-18.5C27.5-1.175,19.175-9.5,9-9.5L9-9.5z M9,23.8
				C0.86,23.8-5.8,17.142-5.8,9C-5.8,0.86,0.86-5.8,9-5.8C17.142-5.8,23.8,0.86,23.8,9C23.8,17.142,17.142,23.8,9,23.8L9,23.8z"/>
		</g>
	</g>
</g>
</svg>
